<svg width="15" height="15" viewBox="0 0 15 15" fill="none" xmlns="http://www.w3.org/2000/svg">
<path d="M4.49833 12C3.67364 12 3.00638 12.675 3.00638 13.5C3.00638 14.325 3.67364 15 4.49833 15C5.32302 15 5.99777 14.325 5.99777 13.5C5.99777 12.675 5.32302 12 4.49833 12ZM0 0.75C0 1.1625 0.337375 1.5 0.749722 1.5H1.49944L4.19844 7.1925L3.18632 9.0225C2.63902 10.0275 3.35875 11.25 4.49833 11.25H12.7453C13.1576 11.25 13.495 10.9125 13.495 10.5C13.495 10.0875 13.1576 9.75 12.7453 9.75H4.49833L5.32302 8.25H10.9084C11.4707 8.25 11.9656 7.9425 12.2205 7.4775L14.9045 2.61C15.1819 2.115 14.822 1.5 14.2522 1.5H3.15633L2.65401 0.4275C2.53406 0.165 2.26416 0 1.97927 0H0.749722C0.337375 0 0 0.3375 0 0.75ZM11.9955 12C11.1709 12 10.5036 12.675 10.5036 13.5C10.5036 14.325 11.1709 15 11.9955 15C12.8202 15 13.495 14.325 13.495 13.5C13.495 12.675 12.8202 12 11.9955 12Z" fill="white"/>
</svg>
